<?xml version="1.0" encoding="UTF-8" standalone="no"?>
<svg
   version="1.0"
   viewBox="0 0 1403.0078 662.25"
   preserveAspectRatio="xMidYMid"
   id="svg112"
   width="1403.0078"
   height="662.25"
   xmlns="http://www.w3.org/2000/svg"
   xmlns:svg="http://www.w3.org/2000/svg">
  <defs
     id="defs16">
    <g
       id="g2" />
    <clipPath
       id="d2fecf8757">
      <rect
         x="0"
         width="457"
         y="0"
         height="415"
         id="rect4" />
    </clipPath>
    <clipPath
       id="0db5599601">
      <path
         d="m 272,0.078125 h 86 V 234 h -86 z m 0,0"
         clip-rule="nonzero"
         id="path7" />
    </clipPath>
    <clipPath
       id="b1d52433d2">
      <rect
         x="0"
         width="726"
         y="0"
         height="323"
         id="rect10" />
    </clipPath>
    <clipPath
       id="61a4a61981">
      <path
         d="M 48.496094,435.77734 H 1451.5039 V 1098.0273 H 48.496094 Z m 0,0"
         clip-rule="nonzero"
         id="path13" />
    </clipPath>
  </defs>
  <g
     transform="translate(106.50391,168.22266)"
     id="g70">
    <g
       clip-path="url(#b1d52433d2)"
       id="g68">
      <g
         fill="#000000"
         fill-opacity="1"
         id="g24">
        <g
           transform="translate(1.937836,230.1378)"
           id="g22">
          <g
             id="g20">
            <path
               d="m 107.45313,-146.59375 c 7.69531,0 14.42968,2.24609 20.20312,6.73438 5.78125,4.49218 8.67187,10.69531 8.67187,18.60937 0,5.99219 -1.71484,11.01562 -5.14062,15.07812 -3.41797,4.0625 -7.26562,6.09375 -11.54687,6.09375 -2.99219,0 -5.5586,-1.0664 -7.70313,-3.20312 -2.13672,-2.14453 -3.20312,-4.82031 -3.20312,-8.03125 0,-2.76953 0.53515,-4.90625 1.60937,-6.40625 1.07031,-1.5 2.67578,-3.21094 4.8125,-5.14063 1.92578,-1.70703 3.25781,-3.03906 4,-4 0.75,-0.96875 1.125,-2.30468 1.125,-4.01562 0,-3.41406 -1.44531,-5.92578 -4.32812,-7.53125 -2.88672,-1.60156 -5.9336,-2.40625 -9.14063,-2.40625 -11.335938,0 -21.976562,5.40234 -31.921875,16.20312 -9.9375,10.79297 -17.902344,23.73047 -23.890625,38.812505 -5.992188,15.074219 -8.984375,28.0625 -8.984375,38.96875 0,11.335937 2.78125,20.476563 8.34375,27.421875 5.5625,6.949219 12.832031,10.421875 21.8125,10.421875 8.769531,0 17.054687,-2.671875 24.859375,-8.015625 7.80078,-5.34375 14.48438,-11.648438 20.04688,-18.921875 l 4.8125,3.203125 c -20.3125,24.375 -41.699224,36.5625 -64.156255,36.5625 -13.261719,0 -23.636719,-4.648438 -31.125,-13.953125 -7.480469,-9.300781 -11.21875,-20.363281 -11.21875,-33.1875 0,-15.613281 4.4375,-31.492187 13.3125,-47.640625 8.875,-16.14453 20.472656,-29.45703 34.796875,-39.9375 14.332031,-10.47656 28.984375,-15.71875 43.95313,-15.71875 z m 0,0"
               id="path18" />
          </g>
        </g>
      </g>
      <g
         fill="#000000"
         fill-opacity="1"
         id="g32">
        <g
           transform="translate(119.97419,230.1378)"
           id="g30">
          <g
             id="g28">
            <path
               d="m 103.28125,-146.59375 c 7.69531,0 14.96875,2.03125 21.8125,6.09375 6.84375,4.0625 12.34766,9.78906 16.51562,17.17187 4.17579,7.375 6.26563,15.76563 6.26563,25.17188 0,18.824219 -4.8125,36.042969 -14.4375,51.65625 -9.625,15.605469 -21.65625,27.898438 -36.09375,36.875 -14.429688,8.980469 -28.164062,13.46875 -41.203125,13.46875 -10.480469,0 -19.039063,-2.726562 -25.671875,-8.171875 -6.625,-5.457031 -11.4375,-12.035156 -14.4375,-19.734375 -2.992188,-7.695312 -4.484375,-14.96875 -4.484375,-21.8125 0,-14.539062 4.488281,-29.722656 13.46875,-45.546875 8.976563,-15.820315 20.578125,-28.972655 34.796875,-39.453125 14.226562,-10.47656 28.71875,-15.71875 43.46875,-15.71875 z M 37.84375,-33.6875 c 0,8.5625 2.242188,15.625 6.734375,21.1875 4.5,5.554688 10.273437,8.328125 17.328125,8.328125 6.625,0 12.878906,-1.972656 18.765625,-5.921875 5.882813,-3.957031 10.859375,-9.359375 14.921875,-16.203125 7.90625,-12.832031 14.36719,-27.109375 19.39063,-42.828125 5.03125,-15.71875 7.54687,-28.816406 7.54687,-39.29688 0,-20.95703 -7.91406,-31.43749 -23.734375,-31.43749 -11.335937,0 -21.652344,6.25781 -30.953125,18.76562 -9.304688,12.51172 -16.632812,27.265625 -21.984375,44.265625 -5.34375,17 -8.015625,31.382813 -8.015625,43.140625 z m 0,0"
               id="path26" />
          </g>
        </g>
      </g>
      <g
         clip-path="url(#0db5599601)"
         id="g42">
        <g
           fill="#000000"
           fill-opacity="1"
           id="g40">
          <g
             transform="translate(257.8975,230.1378)"
             id="g38">
            <g
               id="g36">
              <path
                 d="m 44.59375,-35.921875 c -1.5,5.125 -2.625,9.242187 -3.375,12.34375 -0.75,3.105469 -1.125,5.726563 -1.125,7.859375 0,1.5 0.375,2.625 1.125,3.375 0.75,0.742188 1.441406,1.109375 2.078125,1.109375 2.570313,0 6.957031,-3.097656 13.15625,-9.296875 C 62.648438,-26.726562 66.5,-31.113281 68,-33.6875 l 5.140625,2.890625 c -6.84375,9.40625 -14.335937,17.53125 -22.46875,24.375 -8.125,6.84375 -15.714844,10.265625 -22.765625,10.265625 -8.554688,0 -12.828125,-5.023438 -12.828125,-15.078125 0,-4.0625 0.851563,-9.082031 2.5625,-15.0625 1.707031,-5.988281 2.882813,-9.945313 3.53125,-11.875 L 66.71875,-196.625 c 1.28125,-4.91406 1.921875,-8.76562 1.921875,-11.54687 0,-2.78125 -0.964844,-5.02344 -2.890625,-6.73438 -1.917969,-1.71875 -4.375,-2.57812 -7.375,-2.57812 -4.0625,0 -7.699219,0.32421 -10.90625,0.96875 v -6.09375 l 47.15625,-7.375 h 5.45313 L 48.75,-50.359375 c -2.136719,7.699219 -3.523438,12.511719 -4.15625,14.4375 z m 0,0"
                 id="path34" />
            </g>
          </g>
        </g>
      </g>
      <g
         fill="#000000"
         fill-opacity="1"
         id="g50">
        <g
           transform="translate(322.36728,230.1378)"
           id="g48">
          <g
             id="g46">
            <path
               d="m 103.28125,-146.59375 c 7.69531,0 14.96875,2.03125 21.8125,6.09375 6.84375,4.0625 12.34766,9.78906 16.51562,17.17187 4.17579,7.375 6.26563,15.76563 6.26563,25.17188 0,18.824219 -4.8125,36.042969 -14.4375,51.65625 -9.625,15.605469 -21.65625,27.898438 -36.09375,36.875 -14.429688,8.980469 -28.164062,13.46875 -41.203125,13.46875 -10.480469,0 -19.039063,-2.726562 -25.671875,-8.171875 -6.625,-5.457031 -11.4375,-12.035156 -14.4375,-19.734375 -2.992188,-7.695312 -4.484375,-14.96875 -4.484375,-21.8125 0,-14.539062 4.488281,-29.722656 13.46875,-45.546875 8.976563,-15.820315 20.578125,-28.972655 34.796875,-39.453125 14.226562,-10.47656 28.71875,-15.71875 43.46875,-15.71875 z M 37.84375,-33.6875 c 0,8.5625 2.242188,15.625 6.734375,21.1875 4.5,5.554688 10.273437,8.328125 17.328125,8.328125 6.625,0 12.878906,-1.972656 18.765625,-5.921875 5.882813,-3.957031 10.859375,-9.359375 14.921875,-16.203125 7.90625,-12.832031 14.36719,-27.109375 19.39063,-42.828125 5.03125,-15.71875 7.54687,-28.816406 7.54687,-39.29688 0,-20.95703 -7.91406,-31.43749 -23.734375,-31.43749 -11.335937,0 -21.652344,6.25781 -30.953125,18.76562 -9.304688,12.51172 -16.632812,27.265625 -21.984375,44.265625 -5.34375,17 -8.015625,31.382813 -8.015625,43.140625 z m 0,0"
               id="path44" />
          </g>
        </g>
      </g>
      <g
         fill="#000000"
         fill-opacity="1"
         id="g58">
        <g
           transform="translate(460.29059,230.1378)"
           id="g56">
          <g
             id="g54">
            <path
               d="m 55.171875,-146.59375 c 3.414063,0 6.40625,1.28906 8.96875,3.85938 2.570313,2.5625 3.859375,5.76562 3.859375,9.60937 0,4.5 -1.070312,10.38672 -3.203125,17.65625 l -21.8125,75.046875 c -2.136719,8.5625 -3.203125,14.554687 -3.203125,17.96875 0,2.355469 0.800781,4.230469 2.40625,5.625 1.601562,1.386719 3.363281,2.078125 5.28125,2.078125 5.988281,0 14.382812,-5.34375 25.1875,-16.03125 10.800781,-10.695312 21.117188,-23.90625 30.95313,-39.625 9.83203,-15.71875 16.67578,-30.52344 20.53125,-44.42188 l 8.01562,-28.23437 h 24.0625 L 124.78125,-34 c -1.92969,7.699219 -2.89062,13.042969 -2.89062,16.03125 0,1.292969 0.47656,2.476562 1.4375,3.546875 0.96875,1.0625 1.98437,1.59375 3.04687,1.59375 2.57031,0 5.99219,-2.132813 10.26562,-6.40625 4.28125,-4.28125 8.23829,-9.203125 11.875,-14.765625 L 153,-30.46875 c -5.98047,8.761719 -12.875,16.671875 -20.6875,23.734375 -7.80469,7.050781 -15.44922,10.578125 -22.9375,10.578125 -4.0625,0 -7.05859,-1.546875 -8.98437,-4.640625 -1.917974,-3.101563 -2.875005,-6.472656 -2.875005,-10.109375 0,-8.550781 2.671875,-21.8125 8.015625,-39.78125 L 111.3125,-69.921875 110.67188,-70.25 C 99.328125,-51.21875 86.492188,-34.109375 72.171875,-18.921875 57.847656,-3.742188 44.910156,3.84375 33.359375,3.84375 c -12.1875,0 -18.28125,-7.269531 -18.28125,-21.8125 0,-3.632812 0.640625,-8.125 1.921875,-13.46875 1.28125,-5.34375 3.523438,-13.578125 6.734375,-24.703125 l 14.75,-51.312505 c 1.070313,-3.63281 1.875,-6.57031 2.40625,-8.8125 0.539063,-2.25 0.8125,-4.44531 0.8125,-6.59375 0,-2.5625 -0.484375,-4.32031 -1.453125,-5.28124 -0.960938,-0.96875 -1.976562,-1.45313 -3.046875,-1.45313 -3.417969,0 -6.78125,1.76562 -10.09375,5.29687 -3.3125,3.53125 -7.21875,8.60938 -11.71875,15.23438 l -4.484375,-3.20313 c 4.488281,-8.125 10.898438,-15.87499 19.234375,-23.24999 8.34375,-7.38282 16.6875,-11.07813 25.03125,-11.07813 z m 0,0"
               id="path52" />
          </g>
        </g>
      </g>
      <g
         fill="#000000"
         fill-opacity="1"
         id="g66">
        <g
           transform="translate(598.2139,230.1378)"
           id="g64">
          <g
             id="g62">
            <path
               d="m 68,-146.59375 -19.5625,83.078125 c 3.84375,-9.40625 9.347656,-20.628906 16.515625,-33.671875 7.164063,-13.05078 14.8125,-24.54688 22.9375,-34.48437 8.125,-9.94532 15.500005,-14.92188 22.125005,-14.92188 2.78125,0 5.23828,0.96484 7.375,2.89063 2.14453,1.92968 3.21875,4.8125 3.21875,8.65625 0,5.99218 -1.23047,12.08984 -3.6875,18.29687 -2.46094,6.19922 -6.57813,9.29687 -12.35938,9.29687 -2.99219,0 -5.023438,-0.75 -6.09375,-2.25 -1.0625,-1.5 -1.917969,-3.74218 -2.5625,-6.73437 -0.429688,-2.13281 -0.914062,-3.67969 -1.453125,-4.64063 -0.53125,-0.96875 -1.542969,-1.45312 -3.03125,-1.45312 -3.636719,0 -8.773437,5.77734 -15.40625,17.32812 -6.625,11.542974 -13.148437,24.79688 -19.5625,39.76563 C 50.035156,-50.46875 45.757812,-39.238281 43.625,-31.75 L 34.640625,0 H 10.90625 L 36.25,-103.60938 c 0.207031,-0.63281 0.847656,-3.25 1.921875,-7.84375 1.070313,-4.60156 1.609375,-8.72265 1.609375,-12.35937 0,-3.42578 -0.964844,-5.67187 -2.890625,-6.73437 -1.929687,-1.07032 -4.496094,-1.60938 -7.703125,-1.60938 -2.355469,0 -4.445312,0.10938 -6.265625,0.32813 -1.8125,0.21093 -3.25,0.42187 -4.3125,0.64062 l 1.59375,-6.09375 42.34375,-9.3125 z m 0,0"
               id="path60" />
          </g>
        </g>
      </g>
    </g>
  </g>
  <g
     transform="translate(838.50391,67.222656)"
     id="g106">
    <g
       clip-path="url(#d2fecf8757)"
       id="g104">
      <g
         fill="#ea9bff"
         fill-opacity="1"
         id="g78">
        <g
           transform="translate(0.191773,336.46853)"
           id="g76">
          <g
             id="g74">
            <path
               d="M 65.390625,0.84375 C 50.472656,0.84375 39.476562,-1.414062 32.40625,-5.9375 25.332031,-10.46875 20.945312,-15.941406 19.25,-22.359375 c -1.699219,-6.414063 -2.546875,-14.625 -2.546875,-24.625 l 0.28125,-165.296875 h 43.875 v 156.234375 c 0,6.605469 0.328125,11.558594 0.984375,14.859375 0.664062,3.304688 2.550781,5.902344 5.65625,7.796875 3.113281,1.886719 8.066406,2.828125 14.859375,2.828125 3.59375,0 6.046875,-0.191406 7.359375,-0.578125 V -0.5625 C 81.226562,0.375 73.117188,0.84375 65.390625,0.84375 Z m 0,0"
               id="path72" />
          </g>
        </g>
      </g>
      <g
         fill="#ea9bff"
         fill-opacity="1"
         id="g86">
        <g
           transform="translate(76.899342,336.46853)"
           id="g84">
          <g
             id="g82">
            <path
               d="m 67.078125,2.546875 c -18.492187,0 -32.78125,-7.023437 -42.875,-21.078125 C 14.109375,-32.59375 9.0625,-51.414062 9.0625,-75 c 0,-23.78125 5.1875,-42.69531 15.5625,-56.75 10.375,-14.0625 24.710938,-21.09375 43.015625,-21.09375 12.644531,0 22.363281,2.78906 29.15625,8.35938 6.789065,5.5625 11.507815,11.17187 14.156255,16.82812 h 2.26562 v -22.07812 h 44.4375 V 0 h -44.4375 v -24.0625 h -2.26562 C 108.11719,-18.019531 103.25781,-12.070312 96.375,-6.21875 89.488281,-0.375 79.722656,2.546875 67.078125,2.546875 Z m 16.703125,-35.375 c 10,0 17.45313,-4.195313 22.35938,-12.59375 4.90625,-8.40625 7.35937,-18.363281 7.35937,-29.875 0,-11.3125 -2.45312,-21.164063 -7.35937,-29.562505 -4.90625,-8.40625 -12.35938,-12.60937 -22.35938,-12.60937 -10.375,0 -17.96875,4.10547 -22.78125,12.3125 -4.8125,8.210938 -7.21875,18.070312 -7.21875,29.578125 0,11.699219 2.40625,21.75 7.21875,30.15625 4.8125,8.398437 12.40625,12.59375 22.78125,12.59375 z m 0,0"
               id="path80" />
          </g>
        </g>
      </g>
      <g
         fill="#ea9bff"
         fill-opacity="1"
         id="g94">
        <g
           transform="translate(228.61617,336.46853)"
           id="g92">
          <g
             id="g90">
            <path
               d="m 105.01563,2.546875 c -12.460942,0 -22.085942,-2.828125 -28.875005,-8.484375 -6.792969,-5.664062 -11.792969,-11.707031 -15,-18.125 H 58.875 V 0 H 14.4375 V -212.5625 H 58.875 v 84.90625 h 2.265625 c 2.632813,-5.65625 7.394531,-11.26562 14.28125,-16.82812 6.894531,-5.57032 16.664063,-8.35938 29.312505,-8.35938 18.67578,0 33.06249,6.98438 43.15624,20.95313 10.09375,13.96093 15.14063,32.92187 15.14063,56.89062 0,23.585938 -5.04688,42.40625 -15.14063,56.46875 -10.09375,14.054688 -24.38671,21.078125 -42.87499,21.078125 z m -16.42188,-34.8125 c 10.1875,0 17.6875,-4.242187 22.5,-12.734375 4.8125,-8.488281 7.21875,-18.488281 7.21875,-30 0,-11.507812 -2.40625,-21.367188 -7.21875,-29.57813 -4.8125,-8.20703 -12.3125,-12.3125 -22.5,-12.3125 -10.1875,0 -17.6875,4.15235 -22.5,12.45313 -4.8125,8.304688 -7.21875,18.117188 -7.21875,29.4375 0,11.511719 2.453125,21.511719 7.359375,30 4.90625,8.492188 12.359375,12.734375 22.359375,12.734375 z m 0,0"
               id="path88" />
          </g>
        </g>
      </g>
      <g
         fill="#ea9bff"
         fill-opacity="1"
         id="g102">
        <g
           transform="translate(379.20082,336.46853)"
           id="g100">
          <g
             id="g98">
            <path
               d="M 47.546875,2.546875 C 40.566406,2.546875 34.8125,0.1875 30.28125,-4.53125 25.757812,-9.25 23.5,-15.003906 23.5,-21.796875 c 0,-6.789063 2.257812,-12.5 6.78125,-17.125 4.53125,-4.625 10.285156,-6.9375 17.265625,-6.9375 6.988281,0 12.789063,2.3125 17.40625,6.9375 4.625,4.625 6.9375,10.335937 6.9375,17.125 0,6.792969 -2.359375,12.546875 -7.078125,17.265625 C 60.09375,0.1875 54.335938,2.546875 47.546875,2.546875 Z m 0,0"
               id="path96" />
          </g>
        </g>
      </g>
    </g>
  </g>
  <g
     clip-path="url(#61a4a61981)"
     id="g110"
     transform="translate(-48.496094,-435.77734)">
    <path
       stroke-linecap="butt"
       transform="matrix(0.75,0,0,0.75,48.496414,435.77625)"
       fill="none"
       stroke-linejoin="miter"
       d="M -4.26964e-4,0.00146305 H 1870.6768 V 883.01716 H -4.26964e-4 Z m 0,0"
       stroke="#e999ff"
       stroke-width="40"
       stroke-opacity="1"
       stroke-miterlimit="4"
       id="path108" />
  </g>
</svg>
