<?xml version="1.0" encoding="UTF-8" standalone="no"?>
<svg
   version="1.0"
   viewBox="0 0 434.19653 215.10938"
   preserveAspectRatio="xMidYMid"
   id="svg45"
   width="434.19653"
   height="215.10938"
   xmlns="http://www.w3.org/2000/svg"
   xmlns:svg="http://www.w3.org/2000/svg">
  <defs
     id="defs7">
    <g
       id="g2" />
    <clipPath
       id="d2fecf8757">
      <rect
         x="0"
         width="457"
         y="0"
         height="415"
         id="rect4" />
    </clipPath>
  </defs>
  <g
     transform="translate(-16.894898,-123.90603)"
     id="g43">
    <g
       clip-path="url(#d2fecf8757)"
       id="g41">
      <g
         fill="#ea9bff"
         fill-opacity="1"
         id="g15">
        <g
           transform="translate(0.191773,336.46853)"
           id="g13">
          <g
             id="g11">
            <path
               d="M 65.390625,0.84375 C 50.472656,0.84375 39.476562,-1.414062 32.40625,-5.9375 25.332031,-10.46875 20.945312,-15.941406 19.25,-22.359375 c -1.699219,-6.414063 -2.546875,-14.625 -2.546875,-24.625 l 0.28125,-165.296875 h 43.875 v 156.234375 c 0,6.605469 0.328125,11.558594 0.984375,14.859375 0.664062,3.304688 2.550781,5.902344 5.65625,7.796875 3.113281,1.886719 8.066406,2.828125 14.859375,2.828125 3.59375,0 6.046875,-0.191406 7.359375,-0.578125 V -0.5625 C 81.226562,0.375 73.117188,0.84375 65.390625,0.84375 Z m 0,0"
               id="path9" />
          </g>
        </g>
      </g>
      <g
         fill="#ea9bff"
         fill-opacity="1"
         id="g23">
        <g
           transform="translate(76.899342,336.46853)"
           id="g21">
          <g
             id="g19">
            <path
               d="m 67.078125,2.546875 c -18.492187,0 -32.78125,-7.023437 -42.875,-21.078125 C 14.109375,-32.59375 9.0625,-51.414062 9.0625,-75 c 0,-23.78125 5.1875,-42.69531 15.5625,-56.75 10.375,-14.0625 24.710938,-21.09375 43.015625,-21.09375 12.644531,0 22.363281,2.78906 29.15625,8.35938 6.789065,5.5625 11.507815,11.17187 14.156255,16.82812 h 2.26562 v -22.07812 h 44.4375 V 0 h -44.4375 v -24.0625 h -2.26562 C 108.11719,-18.019531 103.25781,-12.070312 96.375,-6.21875 89.488281,-0.375 79.722656,2.546875 67.078125,2.546875 Z m 16.703125,-35.375 c 10,0 17.45313,-4.195313 22.35938,-12.59375 4.90625,-8.40625 7.35937,-18.363281 7.35937,-29.875 0,-11.3125 -2.45312,-21.164063 -7.35937,-29.562505 -4.90625,-8.40625 -12.35938,-12.60937 -22.35938,-12.60937 -10.375,0 -17.96875,4.10547 -22.78125,12.3125 -4.8125,8.210938 -7.21875,18.070312 -7.21875,29.578125 0,11.699219 2.40625,21.75 7.21875,30.15625 4.8125,8.398437 12.40625,12.59375 22.78125,12.59375 z m 0,0"
               id="path17" />
          </g>
        </g>
      </g>
      <g
         fill="#ea9bff"
         fill-opacity="1"
         id="g31">
        <g
           transform="translate(228.61617,336.46853)"
           id="g29">
          <g
             id="g27">
            <path
               d="m 105.01563,2.546875 c -12.460942,0 -22.085942,-2.828125 -28.875005,-8.484375 -6.792969,-5.664062 -11.792969,-11.707031 -15,-18.125 H 58.875 V 0 H 14.4375 V -212.5625 H 58.875 v 84.90625 h 2.265625 c 2.632813,-5.65625 7.394531,-11.26562 14.28125,-16.82812 6.894531,-5.57032 16.664063,-8.35938 29.312505,-8.35938 18.67578,0 33.06249,6.98438 43.15624,20.95313 10.09375,13.96093 15.14063,32.92187 15.14063,56.89062 0,23.585938 -5.04688,42.40625 -15.14063,56.46875 -10.09375,14.054688 -24.38671,21.078125 -42.87499,21.078125 z m -16.42188,-34.8125 c 10.1875,0 17.6875,-4.242187 22.5,-12.734375 4.8125,-8.488281 7.21875,-18.488281 7.21875,-30 0,-11.507812 -2.40625,-21.367188 -7.21875,-29.57813 -4.8125,-8.20703 -12.3125,-12.3125 -22.5,-12.3125 -10.1875,0 -17.6875,4.15235 -22.5,12.45313 -4.8125,8.304688 -7.21875,18.117188 -7.21875,29.4375 0,11.511719 2.453125,21.511719 7.359375,30 4.90625,8.492188 12.359375,12.734375 22.359375,12.734375 z m 0,0"
               id="path25" />
          </g>
        </g>
      </g>
      <g
         fill="#ea9bff"
         fill-opacity="1"
         id="g39">
        <g
           transform="translate(379.20082,336.46853)"
           id="g37">
          <g
             id="g35">
            <path
               d="M 47.546875,2.546875 C 40.566406,2.546875 34.8125,0.1875 30.28125,-4.53125 25.757812,-9.25 23.5,-15.003906 23.5,-21.796875 c 0,-6.789063 2.257812,-12.5 6.78125,-17.125 4.53125,-4.625 10.285156,-6.9375 17.265625,-6.9375 6.988281,0 12.789063,2.3125 17.40625,6.9375 4.625,4.625 6.9375,10.335937 6.9375,17.125 0,6.792969 -2.359375,12.546875 -7.078125,17.265625 C 60.09375,0.1875 54.335938,2.546875 47.546875,2.546875 Z m 0,0"
               id="path33" />
          </g>
        </g>
      </g>
    </g>
  </g>
</svg>
